<svg width="20" height="20" viewBox="0 0 20 20" fill="none" xmlns="http://www.w3.org/2000/svg">
<path d="M4.58521 14.1165C3.8803 13.0799 4.09947 11.6642 4.98801 10.7756L6.72362 9.04004C7.03164 8.73201 7.03164 8.22258 6.72362 7.91456C6.41559 7.60653 5.90616 7.60653 5.59814 7.91456L3.92176 9.59093C2.37571 11.137 2.12692 13.6486 3.51896 15.3368C5.1124 17.2738 7.98534 17.3745 9.71503 15.6448L11.5217 13.8381C11.8297 13.5301 11.8297 13.0207 11.5217 12.7127C11.2137 12.4046 10.7043 12.4046 10.3962 12.7127L8.58955 14.5194C7.45814 15.6508 5.53298 15.5145 4.58521 14.1165ZM8.53031 12.0907L12.0845 8.53653C12.4103 8.21074 12.4103 7.67761 12.0845 7.35182C11.7587 7.02602 11.2255 7.02602 10.8997 7.35182L7.34559 10.906C7.0198 11.2318 7.0198 11.7649 7.34559 12.0907C7.67139 12.4165 8.20451 12.4165 8.53031 12.0907ZM9.58471 3.92798L7.90834 5.60436C7.60031 5.91239 7.60031 6.42181 7.90833 6.72984C8.21636 7.03787 8.72579 7.03787 9.03382 6.72984L10.7694 4.99423C11.658 4.10569 13.0737 3.88652 14.1103 4.59143C15.5083 5.5392 15.6445 7.46436 14.5131 8.59577L12.7064 10.4025C12.3984 10.7105 12.3984 11.2199 12.7064 11.5279C13.0145 11.836 13.5239 11.836 13.8319 11.5279L15.6386 9.72125C17.3683 7.99156 17.2676 5.11862 15.3365 3.51926C13.6483 2.12722 11.1308 2.38193 9.58471 3.92798Z" fill="#868686"/>
</svg>
