<svg width="16" height="24" viewBox="0 0 16 24" fill="none" xmlns="http://www.w3.org/2000/svg">
<g clip-path="url(#clip0_341_44039)">
<path fill-rule="evenodd" clip-rule="evenodd" d="M8.24979 6.75012C8.66401 6.3359 9.33559 6.3359 9.74981 6.75012L13.2499 10.2502C13.6641 10.6644 13.6641 11.336 13.2499 11.7502C12.8357 12.1644 12.1641 12.1644 11.7499 11.7502L8.24978 8.25015C7.83556 7.83593 7.83557 7.16434 8.24979 6.75012ZM2.74955 11.2502C3.16377 10.836 3.83535 10.836 4.24958 11.2502L8.74966 15.7503C9.16388 16.1645 9.16388 16.8361 8.74966 17.2503C8.33544 17.6645 7.66385 17.6645 7.24963 17.2503L5.52981 15.5305L3.27996 17.7803C2.98707 18.0732 2.5122 18.0732 2.2193 17.7803C1.92641 17.4874 1.92641 17.0126 2.2193 16.7197L4.46914 14.4698L2.74955 12.7502C2.33533 12.336 2.33533 11.6644 2.74955 11.2502ZM11.4994 11.4999L8.49934 8.49981L4.49927 11.4999L8.49934 15.4999L11.4994 11.4999Z" fill="#868686"/>
</g>
<defs>
<clipPath id="clip0_341_44039">
<rect width="16" height="16" fill="white" transform="translate(0 4)"/>
</clipPath>
</defs>
</svg>
