<svg width="16" height="16" viewBox="0 0 16 16" fill="none" xmlns="http://www.w3.org/2000/svg">
<g clip-path="url(#clip0_309_56375)">
<path d="M9.48089 4.29674C10.299 4.29674 10.9623 3.63351 10.9623 2.81536C10.9623 1.99722 10.299 1.33398 9.48089 1.33398C8.66275 1.33398 7.99951 1.99722 7.99951 2.81536C7.99951 3.63351 8.66275 4.29674 9.48089 4.29674Z" stroke="#868686" stroke-width="1.5" stroke-linecap="round" stroke-linejoin="round"/>
<path d="M10.2221 14.6664C11.0402 14.6664 11.7035 14.0031 11.7035 13.185C11.7035 12.3668 11.0402 11.7036 10.2221 11.7036C9.40396 11.7036 8.74072 12.3668 8.74072 13.185C8.74072 14.0031 9.40396 14.6664 10.2221 14.6664Z" stroke="#868686" stroke-width="1.5" stroke-linecap="round" stroke-linejoin="round"/>
<path d="M5.03704 9.48131C5.85519 9.48131 6.51842 8.81808 6.51842 7.99993C6.51842 7.18179 5.85519 6.51855 5.03704 6.51855C4.2189 6.51855 3.55566 7.18179 3.55566 7.99993C3.55566 8.81808 4.2189 9.48131 5.03704 9.48131Z" stroke="#868686" stroke-width="1.5" stroke-linecap="round" stroke-linejoin="round"/>
<path d="M1.3335 2.81543H7.9997" stroke="#868686" stroke-width="1.5" stroke-linecap="round" stroke-linejoin="round"/>
<path d="M10.9629 2.81543H14.6663" stroke="#868686" stroke-width="1.5" stroke-linecap="round" stroke-linejoin="round"/>
<path d="M1.3335 8H3.55556" stroke="#868686" stroke-width="1.5" stroke-linecap="round" stroke-linejoin="round"/>
<path d="M6.51904 8H14.6666" stroke="#868686" stroke-width="1.5" stroke-linecap="round" stroke-linejoin="round"/>
<path d="M1.3335 13.1851H8.74039" stroke="#868686" stroke-width="1.5" stroke-linecap="round" stroke-linejoin="round"/>
<path d="M11.7026 13.1851H14.6654" stroke="#868686" stroke-width="1.5" stroke-linecap="round" stroke-linejoin="round"/>
</g>
<defs>
<clipPath id="clip0_309_56375">
<rect width="16" height="16" fill="white"/>
</clipPath>
</defs>
</svg>
