<svg width="12" height="13" viewBox="0 0 12 13" fill="none" xmlns="http://www.w3.org/2000/svg">
<path fill-rule="evenodd" clip-rule="evenodd" d="M4.46287 8.695H7.15594C7.35891 8.695 7.52723 8.525 7.52723 8.32C7.52723 8.115 7.35891 7.95 7.15594 7.95H4.46287C4.2599 7.95 4.09158 8.115 4.09158 8.32C4.09158 8.525 4.2599 8.695 4.46287 8.695ZM6.13614 5.45H4.46287C4.2599 5.45 4.09158 5.62 4.09158 5.825C4.09158 6.03 4.2599 6.195 4.46287 6.195H6.13614C6.33911 6.195 6.50743 6.03 6.50743 5.825C6.50743 5.62 6.33911 5.45 6.13614 5.45ZM9.66903 5.01281C9.7854 5.01146 9.9121 5.01 10.0272 5.01C10.151 5.01 10.25 5.11 10.25 5.235V9.255C10.25 10.495 9.25495 11.5 8.02723 11.5H4.08663C2.7995 11.5 1.75 10.445 1.75 9.145V3.755C1.75 2.515 2.75 1.5 3.98267 1.5H6.62624C6.75495 1.5 6.85396 1.605 6.85396 1.73V3.34C6.85396 4.255 7.60149 5.005 8.50743 5.01C8.71903 5.01 8.90559 5.01158 9.06885 5.01297C9.19586 5.01404 9.30877 5.015 9.40842 5.015C9.47889 5.015 9.57023 5.01395 9.66903 5.01281ZM9.80554 4.283C9.39861 4.2845 8.91891 4.283 8.57386 4.2795C8.02634 4.2795 7.57535 3.824 7.57535 3.271V1.953C7.57535 1.7375 7.83426 1.6305 7.98228 1.786L9.97535 3.8795C10.1199 4.031 10.014 4.2825 9.80554 4.283Z" fill="#1B1B1B"/>
</svg>
