<svg width="12" height="13" viewBox="0 0 12 13" fill="none" xmlns="http://www.w3.org/2000/svg">
<path fill-rule="evenodd" clip-rule="evenodd" d="M3.81851 2.1975C2.53001 2.1975 1.69751 3.081 1.69751 4.444V8.551C1.69751 8.9335 1.76851 9.275 1.89001 9.5705C1.89526 9.56423 2.00984 9.4246 2.15927 9.24251C2.451 8.887 2.87554 8.36964 2.87851 8.367C3.22451 7.972 3.87401 7.383 4.72651 7.7395C4.91332 7.81696 5.07937 7.92306 5.23223 8.02074C5.24711 8.03025 5.26187 8.03968 5.27651 8.049C5.56301 8.2405 5.73151 8.3305 5.90651 8.3155C5.97901 8.3055 6.04701 8.284 6.11151 8.244C6.35483 8.094 6.98563 7.20019 7.17453 6.93254C7.20224 6.89328 7.22044 6.86749 7.22651 6.8595C7.77151 6.1495 8.61151 5.9595 9.31151 6.3795C9.40551 6.4355 10.079 6.906 10.302 7.095V4.444C10.302 3.081 9.46951 2.1975 8.17651 2.1975H3.81851ZM8.17651 1.5C9.86501 1.5 10.9995 2.681 10.9995 4.444V8.551C10.9995 8.59534 10.9949 8.63692 10.9902 8.67848C10.9869 8.70768 10.9837 8.73687 10.982 8.767C10.9809 8.78521 10.9804 8.80343 10.9799 8.82164C10.9792 8.84593 10.9785 8.87021 10.9765 8.8945C10.9755 8.904 10.9736 8.91313 10.9718 8.92225C10.9699 8.93137 10.968 8.9405 10.967 8.95C10.9505 9.107 10.925 9.257 10.8895 9.4025C10.8811 9.43886 10.8714 9.47391 10.8616 9.50928L10.8595 9.517C10.8195 9.658 10.7725 9.7925 10.716 9.921C10.7061 9.9426 10.6957 9.96367 10.6852 9.98473C10.6783 9.99877 10.6713 10.0128 10.6645 10.027C10.6035 10.1495 10.5375 10.267 10.461 10.376C10.4469 10.3962 10.4318 10.4151 10.4167 10.434C10.4067 10.4465 10.3968 10.4591 10.387 10.472C10.3075 10.575 10.2245 10.6735 10.1305 10.763C10.1117 10.7808 10.0915 10.7972 10.0712 10.8135C10.0585 10.8237 10.0458 10.8339 10.0335 10.8445C9.93701 10.9275 9.83851 11.007 9.73001 11.075C9.70633 11.0899 9.68118 11.1024 9.65611 11.1148C9.6399 11.1228 9.62372 11.1309 9.60801 11.1395C9.49751 11.2005 9.38601 11.26 9.26451 11.306C9.23528 11.3171 9.20417 11.3251 9.17298 11.3332C9.15082 11.3389 9.12861 11.3446 9.10701 11.3515C9.09619 11.3548 9.08539 11.3582 9.07458 11.3616C8.96606 11.3953 8.85788 11.429 8.74101 11.449C8.6733 11.4609 8.60145 11.4654 8.52954 11.47C8.49844 11.472 8.46731 11.4739 8.43651 11.4765C8.40339 11.479 8.37093 11.483 8.33843 11.487C8.28554 11.4935 8.23256 11.5 8.17651 11.5H3.81851C3.63051 11.5 3.45101 11.481 3.27751 11.4525L3.25901 11.4495C2.58251 11.333 2.02101 11.0065 1.62751 10.514C1.62478 10.514 1.62371 10.5122 1.62228 10.5097C1.62135 10.5081 1.62028 10.5063 1.61851 10.5045C1.22301 10.0065 0.999512 9.337 0.999512 8.551V4.444C0.999512 2.681 2.13501 1.5 3.81851 1.5H8.17651ZM5.49981 4.75728C5.49981 5.43475 4.93295 5.9998 4.25223 5.9998C3.65388 5.9998 3.14371 5.56263 3.02937 4.99662C3.01047 4.91169 2.99981 4.82435 2.99981 4.73412C2.99981 4.05182 3.55408 3.4998 4.23915 3.4998C4.58799 3.4998 4.90388 3.64649 5.13014 3.88052C5.35737 4.10634 5.49981 4.41758 5.49981 4.75728Z" fill="#1B1B1B"/>
</svg>
