<svg width="12" height="13" viewBox="0 0 12 13" fill="none" xmlns="http://www.w3.org/2000/svg">
<path id="Mask" fill-rule="evenodd" clip-rule="evenodd" d="M5.07446 10.3569C2.34553 10.3569 0.133301 8.14469 0.133301 5.41576C0.133301 2.68684 2.34553 0.474609 5.07446 0.474609C7.80338 0.474609 10.0156 2.68684 10.0156 5.41576C10.0156 6.72054 9.50988 7.9072 8.68375 8.79041L11.1889 11.9218C11.4162 12.2059 11.3701 12.6205 11.086 12.8478C10.8019 13.0751 10.3873 13.0291 10.16 12.7449L7.66391 9.62487C6.91093 10.0891 6.02397 10.3569 5.07446 10.3569ZM5.07446 9.03928C7.07567 9.03928 8.69797 7.41698 8.69797 5.41577C8.69797 3.41455 7.07567 1.79225 5.07446 1.79225C3.07324 1.79225 1.45094 3.41455 1.45094 5.41577C1.45094 7.41698 3.07324 9.03928 5.07446 9.03928Z" fill="#868686"/>
</svg>
