<svg width="20" height="20" viewBox="0 0 20 20" fill="none" xmlns="http://www.w3.org/2000/svg">
<path fill-rule="evenodd" clip-rule="evenodd" d="M17.2365 2.5122L2.6136 8.04051C2.57961 8.05663 2.55089 8.08206 2.53079 8.11385C2.51068 8.14564 2.5 8.18249 2.5 8.2201C2.5 8.25772 2.51068 8.29457 2.53079 8.32636C2.55089 8.35815 2.57961 8.38358 2.6136 8.39969L8.87448 11.0787C8.89779 11.0882 8.91897 11.1022 8.93677 11.12C8.95456 11.1378 8.96862 11.159 8.97812 11.1823L11.6571 17.4389C11.6732 17.4729 11.6986 17.5016 11.7304 17.5217C11.7622 17.5419 11.7991 17.5525 11.8367 17.5525C11.8743 17.5525 11.9111 17.5419 11.9429 17.5217C11.9747 17.5016 12.0002 17.4729 12.0163 17.4389L17.4864 2.75922C17.5002 2.72489 17.5036 2.68726 17.4962 2.651C17.4888 2.61475 17.4709 2.58147 17.4447 2.5553C17.4185 2.52914 17.3853 2.51124 17.349 2.50383C17.3127 2.49641 17.2751 2.49982 17.2408 2.51362L17.2365 2.5122Z" stroke="#868686" stroke-width="1.5" stroke-linecap="round" stroke-linejoin="round"/>
<path d="M17.4353 2.55859L8.93555 11.0583" stroke="#868686" stroke-width="1.5" stroke-linecap="round" stroke-linejoin="round"/>
</svg>
