<svg width="16" height="16" viewBox="0 0 16 16" fill="none" xmlns="http://www.w3.org/2000/svg">
<g clip-path="url(#clip0_344_30567)">
<path d="M1.66669 14.0288L2.19322 12.1294C3.06568 9.00985 5.36638 7.43359 7.66645 7.43359" stroke="#868686" stroke-width="1.5" stroke-linecap="round" stroke-linejoin="round"/>
<path d="M7.66642 7.41944C9.50741 7.41944 10.9998 5.94305 10.9998 4.12183C10.9998 2.30061 9.50741 0.824219 7.66642 0.824219C5.82543 0.824219 4.33301 2.30061 4.33301 4.12183C4.33301 5.94305 5.82543 7.41944 7.66642 7.41944Z" stroke="#868686" stroke-width="1.5" stroke-linecap="round" stroke-linejoin="bevel"/>
<mask id="path-3-outside-1_344_30567" maskUnits="userSpaceOnUse" x="7.20569" y="6.62305" width="10" height="10" fill="black">
<rect fill="white" x="7.20569" y="6.62305" width="10" height="10"/>
<path fill-rule="evenodd" clip-rule="evenodd" d="M11.5645 9.01423L11.5893 8.95356C11.6374 8.8508 11.7133 8.76483 11.8078 8.70621C11.9023 8.64758 12.0112 8.61885 12.1213 8.62354C12.2313 8.62824 12.3376 8.66615 12.4271 8.73262C12.5166 8.7991 12.5855 8.89124 12.6252 8.99774L12.6449 9.0637C12.6695 9.137 12.7086 9.20418 12.7596 9.26095C12.8106 9.31773 12.8725 9.36286 12.9413 9.39346C13.0113 9.42512 13.0867 9.44212 13.1631 9.44348C13.2395 9.44484 13.3154 9.43053 13.3864 9.40137L13.4449 9.37697C13.5492 9.33536 13.6629 9.3263 13.772 9.35091C13.8812 9.37552 13.981 9.43273 14.0592 9.51547C14.1353 9.59524 14.1849 9.6981 14.2008 9.80912C14.2167 9.92013 14.1981 10.0335 14.1476 10.1328L14.1171 10.1908C14.0821 10.2576 14.0614 10.3314 14.0565 10.4072C14.0515 10.483 14.0624 10.559 14.0884 10.6301C14.1155 10.7023 14.1568 10.768 14.2095 10.8229C14.2623 10.8779 14.3254 10.9209 14.395 10.9493L14.4585 10.9737C14.5598 11.0152 14.6463 11.0882 14.706 11.1826C14.7658 11.2771 14.796 11.3884 14.7924 11.5013C14.7859 11.6143 14.7463 11.7225 14.6788 11.8114C14.6112 11.9003 14.5191 11.9656 14.4147 11.9986L14.3511 12.0177C14.2781 12.0393 14.2103 12.0764 14.1518 12.1265C14.0934 12.1767 14.0456 12.2389 14.0115 12.3092C13.9786 12.3782 13.9607 12.4537 13.9589 12.5306C13.9572 12.6075 13.9716 12.6839 14.0013 12.7544L14.0261 12.8118C14.0676 12.9155 14.0765 13.0301 14.0513 13.1393C14.0262 13.2486 13.9684 13.3467 13.8862 13.4198C13.8017 13.4956 13.6977 13.5443 13.5869 13.5599C13.4761 13.5755 13.3634 13.5573 13.2624 13.5076L13.2033 13.4772C13.1345 13.4423 13.0598 13.4218 12.9834 13.4169C12.907 13.412 12.8305 13.4229 12.7581 13.4489C12.6872 13.4737 12.6219 13.5135 12.5665 13.5657C12.511 13.6179 12.4665 13.6814 12.4357 13.7522L12.4109 13.8129C12.3629 13.9157 12.287 14.0016 12.1925 14.0603C12.098 14.1189 11.989 14.1476 11.879 14.1429C11.769 14.1382 11.6627 14.1003 11.5732 14.0338C11.4836 13.9674 11.4148 13.8752 11.375 13.7687L11.3553 13.7028C11.3317 13.6284 11.2933 13.5601 11.2426 13.5021C11.1919 13.4442 11.13 13.3979 11.0609 13.3664C10.9904 13.3338 10.9143 13.3161 10.8371 13.3144C10.7599 13.3127 10.6831 13.327 10.6113 13.3565L10.5528 13.3816C10.4486 13.4232 10.3349 13.4322 10.2257 13.4076C10.1165 13.383 10.0167 13.3258 9.93853 13.2431C9.86241 13.1633 9.8128 13.0605 9.7969 12.9494C9.78101 12.8384 9.79966 12.725 9.85014 12.6258L9.88067 12.5684C9.91565 12.5016 9.93632 12.4278 9.94126 12.352C9.9462 12.2762 9.93529 12.2002 9.90928 12.1292C9.88219 12.0571 9.84103 11.9916 9.7884 11.9368C9.73577 11.882 9.67279 11.839 9.60341 11.8106L9.53982 11.7862C9.43853 11.7447 9.35209 11.6717 9.29233 11.5772C9.23257 11.4828 9.2024 11.3715 9.20597 11.2586C9.21242 11.1456 9.25207 11.0374 9.3196 10.9485C9.38714 10.8596 9.4793 10.7943 9.5837 10.7613L9.64729 10.7422C9.72025 10.7206 9.78809 10.6835 9.84654 10.6333C9.90499 10.5832 9.95277 10.521 9.98686 10.4507C10.0197 10.3817 10.0377 10.3061 10.0395 10.2292C10.0412 10.1523 10.0267 10.076 9.99704 10.0055L9.97224 9.94811C9.93257 9.8447 9.92516 9.73098 9.95106 9.62297C9.97695 9.51496 10.0348 9.41808 10.1166 9.34597C10.2008 9.27126 10.3041 9.22332 10.4139 9.20788C10.5238 9.19244 10.6356 9.21016 10.736 9.25891L10.7945 9.28925C10.8632 9.32421 10.9379 9.34471 11.0143 9.34958C11.0907 9.35445 11.1673 9.34358 11.2396 9.31761C11.3106 9.29274 11.3758 9.25296 11.4313 9.20076C11.4867 9.14856 11.5312 9.08506 11.562 9.01423H11.5645Z"/>
</mask>
<path d="M11.5645 9.01423V10.5142L12.953 9.58175L11.5645 9.01423ZM11.5893 8.95356L10.2305 8.31828L10.2008 8.38603L11.5893 8.95356ZM12.6252 8.99774L14.0624 8.56817L14.0306 8.47333L12.6252 8.99774ZM12.6449 9.0637L11.2078 9.49327L11.2229 9.54087L12.6449 9.0637ZM12.9413 9.39346L13.5592 8.02663L13.5511 8.023L12.9413 9.39346ZM13.3864 9.40137L13.9559 10.7891L13.9639 10.7858L13.3864 9.40137ZM13.4449 9.37697L12.8889 7.98382L12.8675 7.99257L13.4449 9.37697ZM14.0592 9.51547L12.9689 10.5457L12.974 10.551L14.0592 9.51547ZM14.1476 10.1328L15.4752 10.831L15.4846 10.8128L14.1476 10.1328ZM14.1171 10.1908L12.7895 9.4926L12.7884 9.49459L14.1171 10.1908ZM14.0884 10.6301L12.6798 11.1458L12.6839 11.1567L14.0884 10.6301ZM14.395 10.9493L13.828 12.338L13.8576 12.3497L14.395 10.9493ZM14.4585 10.9737L15.0277 9.58583L14.9959 9.57324L14.4585 10.9737ZM14.7924 11.5013L16.29 11.5867L16.2916 11.5487L14.7924 11.5013ZM14.4147 11.9986L14.8467 13.435L14.8661 13.429L14.4147 11.9986ZM14.3511 12.0177L14.777 13.456L14.7831 13.4541L14.3511 12.0177ZM14.0115 12.3092L12.6619 11.6546L12.6576 11.6635L14.0115 12.3092ZM14.0013 12.7544L12.6189 13.3368L12.6244 13.3495L14.0013 12.7544ZM14.0261 12.8118L15.4187 12.2544L15.403 12.2166L14.0261 12.8118ZM13.8862 13.4198L12.8894 12.299L12.885 12.3029L13.8862 13.4198ZM13.2624 13.5076L12.5777 14.8422L12.5998 14.8533L13.2624 13.5076ZM13.2033 13.4772L13.8879 12.1426L13.8834 12.1403L13.2033 13.4772ZM12.7581 13.4489L13.2544 14.8644L13.2651 14.8606L12.7581 13.4489ZM12.4357 13.7522L11.0598 13.1549L11.0472 13.1847L12.4357 13.7522ZM12.4109 13.8129L13.7698 14.4482L13.7994 14.3804L12.4109 13.8129ZM11.375 13.7687L9.93787 14.1983L9.9697 14.2931L11.375 13.7687ZM11.3553 13.7028L12.7925 13.2732L12.7851 13.2492L11.3553 13.7028ZM11.0609 13.3664L10.4314 14.728L10.4383 14.7311L11.0609 13.3664ZM10.6113 13.3565L10.0416 11.9689L10.0207 11.9777L10.6113 13.3565ZM10.5528 13.3816L11.1088 14.7747L11.1435 14.7604L10.5528 13.3816ZM9.93853 13.2431L11.0288 12.2128L11.0237 12.2075L9.93853 13.2431ZM9.85014 12.6258L8.52586 11.9213L8.51313 11.9458L9.85014 12.6258ZM9.88067 12.5684L11.205 13.2729L11.2093 13.2646L9.88067 12.5684ZM9.90928 12.1292L11.3179 11.6134L11.3133 11.6013L9.90928 12.1292ZM9.60341 11.8106L10.1717 10.4224L10.1408 10.4102L9.60341 11.8106ZM9.53982 11.7862L8.9707 13.174L9.00242 13.1866L9.53982 11.7862ZM9.20597 11.2586L7.70841 11.1731L7.70672 11.2112L9.20597 11.2586ZM9.5837 10.7613L9.15166 9.32487L9.13226 9.33085L9.5837 10.7613ZM9.64729 10.7422L9.22137 9.3039L9.21525 9.30574L9.64729 10.7422ZM9.98686 10.4507L11.3365 11.1053L11.3408 11.0964L9.98686 10.4507ZM9.99704 10.0055L11.3794 9.42309L11.3739 9.41037L9.99704 10.0055ZM9.97224 9.94811L8.57172 10.4853L8.59535 10.5432L9.97224 9.94811ZM10.1166 9.34597L11.1089 10.4708L11.1117 10.4683L10.1166 9.34597ZM10.736 9.25891L11.4265 7.92731L11.3912 7.90961L10.736 9.25891ZM10.7945 9.28925L10.1039 10.6209L10.1143 10.6262L10.7945 9.28925ZM11.2396 9.31761L10.7433 7.90204L10.7327 7.90587L11.2396 9.31761ZM11.562 9.01423V7.51423L10.1861 8.41685L11.562 9.01423ZM12.953 9.58175L12.9778 9.52108L10.2008 8.38603L10.176 8.44671L12.953 9.58175ZM12.9482 9.58883C12.8755 9.74418 12.7567 9.88273 12.5986 9.98081L11.017 7.4316C10.6699 7.64693 10.3992 7.95742 10.2305 8.31828L12.9482 9.58883ZM12.5986 9.98081C12.4398 10.0793 12.2514 10.1305 12.0573 10.1222L12.1852 7.12491C11.7711 7.10724 11.3647 7.21584 11.017 7.4316L12.5986 9.98081ZM12.0573 10.1222C11.8633 10.1139 11.6812 10.047 11.5329 9.93695L13.3213 7.52829C12.994 7.28525 12.5992 7.14257 12.1852 7.12491L12.0573 10.1222ZM11.5329 9.93695C11.3853 9.82734 11.2793 9.6813 11.2199 9.52216L14.0306 8.47333C13.8917 8.10119 13.648 7.77085 13.3213 7.52829L11.5329 9.93695ZM11.1881 9.42732L11.2078 9.49327L14.0821 8.63412L14.0624 8.56817L11.1881 9.42732ZM11.2229 9.54087C11.3118 9.80582 11.4542 10.0524 11.6439 10.2636L13.8753 8.25835C13.963 8.35597 14.0273 8.46817 14.067 8.58652L11.2229 9.54087ZM11.6439 10.2636C11.8338 10.4749 12.0673 10.6464 12.3315 10.7639L13.5511 8.023C13.6777 8.07934 13.7875 8.1606 13.8753 8.25835L11.6439 10.2636ZM12.3233 10.7603C12.5782 10.8755 12.8547 10.9382 13.1364 10.9432L13.1897 7.94371C13.3187 7.94601 13.4444 7.97475 13.5592 8.02665L12.3233 10.7603ZM13.1364 10.9432C13.4182 10.9482 13.6968 10.8954 13.9559 10.7891L12.8169 8.01369C12.9339 7.96568 13.0608 7.94142 13.1897 7.94371L13.1364 10.9432ZM13.9639 10.7858L14.0224 10.7614L12.8675 7.99257L12.809 8.01697L13.9639 10.7858ZM14.0009 10.7701C13.8247 10.8405 13.6296 10.8564 13.4421 10.8142L14.1019 7.88765C13.6962 7.79616 13.2736 7.83027 12.8889 7.98382L14.0009 10.7701ZM13.4421 10.8142C13.2551 10.772 13.0918 10.6757 12.969 10.5457L15.1494 8.48523C14.8703 8.1898 14.5073 7.97903 14.1019 7.88765L13.4421 10.8142ZM12.974 10.551C12.8306 10.4007 12.7435 10.2143 12.716 10.0217L15.6857 9.59651C15.6263 9.18191 15.4401 8.78978 15.1444 8.4799L12.974 10.551ZM12.716 10.0217C12.6884 9.82937 12.72 9.6308 12.8106 9.45279L15.4846 10.8128C15.6761 10.4362 15.745 10.0109 15.6857 9.59651L12.716 10.0217ZM12.82 9.43456L12.7895 9.4926L15.4447 10.889L15.4752 10.831L12.82 9.43456ZM12.7884 9.49459C12.6554 9.7485 12.5781 10.0265 12.5596 10.3097L15.5533 10.5047C15.5447 10.6363 15.5088 10.7667 15.4457 10.887L12.7884 9.49459ZM12.5596 10.3097C12.5412 10.5929 12.5818 10.8778 12.6799 11.1458L15.497 10.1144C15.5431 10.2402 15.5619 10.3731 15.5533 10.5047L12.5596 10.3097ZM12.6839 11.1567C12.7816 11.4172 12.9317 11.6578 13.1275 11.8618L15.2915 9.784C15.3819 9.87813 15.4495 9.98739 15.493 10.1034L12.6839 11.1567ZM13.1275 11.8618C13.3236 12.066 13.5615 12.2292 13.828 12.338L14.9619 9.56054C15.0893 9.61256 15.201 9.68973 15.2915 9.784L13.1275 11.8618ZM13.8576 12.3497L13.9211 12.3741L14.9959 9.57324L14.9324 9.54884L13.8576 12.3497ZM13.8894 12.3615C13.6964 12.2824 13.5414 12.1474 13.4385 11.9847L15.9736 10.3806C15.7512 10.029 15.4233 9.74806 15.0277 9.58583L13.8894 12.3615ZM13.4385 11.9847C13.336 11.8227 13.2873 11.6375 13.2931 11.4539L16.2916 11.5487C16.3046 11.1392 16.1956 10.7315 15.9736 10.3806L13.4385 11.9847ZM13.2948 11.4158C13.3051 11.2351 13.3687 11.0563 13.4843 10.9041L15.8732 12.7187C16.1239 12.3887 16.2668 11.9934 16.29 11.5867L13.2948 11.4158ZM13.4843 10.9041C13.6004 10.7512 13.7656 10.6305 13.9632 10.5681L14.8661 13.429C15.2725 13.3008 15.6221 13.0494 15.8732 12.7187L13.4843 10.9041ZM13.9826 10.5621L13.919 10.5813L14.7831 13.4541L14.8467 13.435L13.9826 10.5621ZM13.9252 10.5794C13.6468 10.6619 13.3917 10.8022 13.1748 10.9884L15.1289 13.2647C15.0289 13.3505 14.9094 13.4167 14.777 13.456L13.9252 10.5794ZM13.1748 10.9884C12.958 11.1744 12.7844 11.402 12.6619 11.6546L15.3611 12.9638C15.3068 13.0758 15.2287 13.179 15.1289 13.2647L13.1748 10.9884ZM12.6576 11.6635C12.5329 11.925 12.4659 12.2092 12.4593 12.4963L15.4585 12.5649C15.4555 12.6983 15.4244 12.8313 15.3654 12.9549L12.6576 11.6635ZM12.4593 12.4963C12.4527 12.7835 12.5067 13.0701 12.619 13.3368L15.3837 12.172C15.4366 12.2976 15.4616 12.4315 15.4585 12.5649L12.4593 12.4963ZM12.6244 13.3495L12.6492 13.4069L15.403 12.2166L15.3782 12.1592L12.6244 13.3495ZM12.6335 13.3691C12.561 13.188 12.5463 12.9908 12.5895 12.803L15.5131 13.4757C15.6066 13.0695 15.5743 12.643 15.4187 12.2544L12.6335 13.3691ZM12.5895 12.803C12.6328 12.615 12.7342 12.437 12.8894 12.299L14.8831 14.5407C15.2026 14.2565 15.4196 13.8821 15.5131 13.4757L12.5895 12.803ZM12.885 12.3029C13.0185 12.1832 13.1892 12.101 13.378 12.0745L13.7958 15.0453C14.2061 14.9876 14.5848 14.8081 14.8875 14.5368L12.885 12.3029ZM13.378 12.0745C13.5672 12.0479 13.7579 12.0795 13.925 12.1618L12.5998 14.8533C12.9689 15.035 13.3851 15.103 13.7958 15.0453L13.378 12.0745ZM13.9471 12.1729L13.8879 12.1426L12.5186 14.8118L12.5777 14.8422L13.9471 12.1729ZM13.8834 12.1403C13.634 12.0134 13.3605 11.9379 13.0788 11.9199L12.8881 14.9138C12.7592 14.9056 12.6351 14.8711 12.5232 14.8142L13.8834 12.1403ZM13.0788 11.9199C12.7971 11.902 12.5156 11.9422 12.2512 12.0371L13.2651 14.8606C13.1453 14.9036 13.017 14.9221 12.8881 14.9138L13.0788 11.9199ZM12.2619 12.0333C11.9904 12.1285 11.7446 12.2793 11.5385 12.4733L13.5944 14.6581C13.4992 14.7477 13.3839 14.819 13.2544 14.8644L12.2619 12.0333ZM11.5385 12.4733C11.3325 12.6671 11.1706 12.8997 11.0598 13.1549L13.8116 14.3496C13.7624 14.4631 13.6894 14.5687 13.5944 14.6581L11.5385 12.4733ZM11.0472 13.1847L11.0224 13.2454L13.7994 14.3804L13.8242 14.3198L11.0472 13.1847ZM11.0521 13.1776C11.1247 13.0223 11.2436 12.8837 11.4017 12.7857L12.9833 15.3349C13.3304 15.1195 13.6011 14.809 13.7698 14.4482L11.0521 13.1776ZM11.4017 12.7857C11.5604 12.6871 11.7489 12.636 11.943 12.6443L11.8151 15.6416C12.2292 15.6592 12.6355 15.5506 12.9833 15.3349L11.4017 12.7857ZM11.943 12.6443C12.1369 12.6526 12.3191 12.7194 12.4674 12.8295L10.679 15.2382C11.0063 15.4812 11.4011 15.6239 11.8151 15.6416L11.943 12.6443ZM12.4674 12.8295C12.615 12.9391 12.721 13.0852 12.7804 13.2443L9.9697 14.2931C10.1086 14.6653 10.3523 14.9956 10.679 15.2382L12.4674 12.8295ZM12.8122 13.3392L12.7925 13.2732L9.91816 14.1323L9.93787 14.1983L12.8122 13.3392ZM12.7851 13.2492C12.6999 12.9805 12.5599 12.7296 12.3713 12.5141L10.1139 14.4901C10.0268 14.3905 9.96363 14.2764 9.92555 14.1563L12.7851 13.2492ZM12.3713 12.5141C12.1826 12.2985 11.9489 12.1228 11.6835 12.0017L10.4383 14.7311C10.3111 14.6731 10.2012 14.5898 10.1139 14.4901L12.3713 12.5141ZM11.6904 12.0049C11.4339 11.8863 11.1548 11.8211 10.8701 11.8148L10.8041 14.8141C10.6737 14.8112 10.5469 14.7813 10.4314 14.7279L11.6904 12.0049ZM10.8701 11.8148C10.5853 11.8085 10.3035 11.8614 10.0416 11.9689L11.181 14.7441C11.0628 14.7927 10.9344 14.8169 10.8041 14.8141L10.8701 11.8148ZM10.0207 11.9777L9.96216 12.0028L11.1435 14.7604L11.202 14.7353L10.0207 11.9777ZM9.99681 11.9884C10.173 11.9181 10.3682 11.9021 10.5556 11.9444L9.89578 14.8709C10.3016 14.9624 10.7241 14.9283 11.1088 14.7747L9.99681 11.9884ZM10.5556 11.9444C10.7426 11.9865 10.906 12.0829 11.0288 12.2129L8.8483 14.2733C9.12747 14.5687 9.49045 14.7795 9.89578 14.8709L10.5556 11.9444ZM11.0237 12.2075C11.1672 12.3579 11.2542 12.5443 11.2818 12.7368L8.31205 13.162C8.37141 13.5766 8.55765 13.9688 8.85337 14.2787L11.0237 12.2075ZM11.2818 12.7368C11.3093 12.9292 11.2777 13.1278 11.1872 13.3058L8.51313 11.9458C8.32162 12.3223 8.25271 12.7477 8.31205 13.162L11.2818 12.7368ZM11.1744 13.3302L11.2049 13.2729L8.55639 11.8639L8.52586 11.9213L11.1744 13.3302ZM11.2093 13.2646C11.3424 13.0107 11.4196 12.7328 11.4381 12.4495L8.44443 12.2545C8.453 12.1229 8.48895 11.9926 8.55204 11.8722L11.2093 13.2646ZM11.4381 12.4495C11.4565 12.1663 11.4159 11.8814 11.3178 11.6135L8.50072 12.6449C8.45463 12.519 8.43586 12.3861 8.44443 12.2545L11.4381 12.4495ZM11.3133 11.6013C11.2156 11.3414 11.0658 11.1014 10.8704 10.8979L8.70643 12.9757C8.61625 12.8818 8.54875 12.7728 8.50522 12.657L11.3133 11.6013ZM10.8704 10.8979C10.6748 10.6942 10.4375 10.5312 10.1717 10.4224L9.03515 13.1988C8.90809 13.1468 8.79675 13.0697 8.70643 12.9757L10.8704 10.8979ZM10.1408 10.4102L10.0772 10.3858L9.00242 13.1866L9.06601 13.211L10.1408 10.4102ZM10.1089 10.3984C10.302 10.4775 10.457 10.6125 10.5599 10.7752L8.02476 12.3793C8.24721 12.7308 8.57509 13.0118 8.9707 13.174L10.1089 10.3984ZM10.5599 10.7752C10.6624 10.9372 10.711 11.1223 10.7052 11.3059L7.70672 11.2112C7.69379 11.6206 7.80272 12.0284 8.02476 12.3793L10.5599 10.7752ZM10.7035 11.344C10.6932 11.5247 10.6297 11.7036 10.5141 11.8558L8.12512 10.0412C7.87444 10.3712 7.73161 10.7665 7.70841 11.1731L10.7035 11.344ZM10.5141 11.8558C10.398 12.0087 10.2328 12.1294 10.0351 12.1918L9.13226 9.33085C8.72584 9.45911 8.37631 9.71048 8.12512 10.0412L10.5141 11.8558ZM10.0157 12.1977L10.0793 12.1786L9.21525 9.30574L9.15166 9.32487L10.0157 12.1977ZM10.0732 12.1804C10.3515 12.098 10.6067 11.9577 10.8236 11.7715L8.86949 9.49519C8.96949 9.40935 9.08894 9.34313 9.22137 9.30392L10.0732 12.1804ZM10.8236 11.7715C11.0403 11.5854 11.214 11.3579 11.3365 11.1053L8.63725 9.79604C8.69157 9.68405 8.76965 9.5809 8.86949 9.49519L10.8236 11.7715ZM11.3408 11.0964C11.4655 10.8348 11.5325 10.5507 11.5391 10.2635L8.53984 10.195C8.54289 10.0616 8.57398 9.92862 8.63295 9.80497L11.3408 11.0964ZM11.5391 10.2635C11.5456 9.97634 11.4917 9.68972 11.3794 9.42312L8.61471 10.5879C8.56178 10.4622 8.5368 10.3284 8.53984 10.195L11.5391 10.2635ZM11.3739 9.41037L11.3491 9.35299L8.59535 10.5432L8.62015 10.6006L11.3739 9.41037ZM11.3728 9.41095C11.4419 9.59133 11.4543 9.78684 11.4097 9.97265L8.49239 9.27329C8.39606 9.67512 8.4232 10.0981 8.57172 10.4853L11.3728 9.41095ZM11.4097 9.97265C11.3651 10.1588 11.2633 10.3346 11.1089 10.4708L9.12429 8.2211C8.80636 8.50155 8.5888 8.87113 8.49239 9.27329L11.4097 9.97265ZM11.1117 10.4683C10.9788 10.5862 10.8096 10.667 10.6227 10.6933L10.2051 7.72248C9.7985 7.77964 9.42287 7.95636 9.12145 8.22361L11.1117 10.4683ZM10.6227 10.6933C10.4355 10.7196 10.2467 10.6888 10.0807 10.6082L11.3912 7.90961C11.0245 7.73151 10.612 7.66529 10.2051 7.72248L10.6227 10.6933ZM10.0454 10.5905L10.1039 10.6209L11.485 7.95765L11.4265 7.92731L10.0454 10.5905ZM10.1143 10.6262C10.3637 10.7531 10.6373 10.8286 10.9189 10.8465L11.1097 7.85262C11.2385 7.86083 11.3627 7.89536 11.4746 7.9523L10.1143 10.6262ZM10.9189 10.8465C11.2006 10.8645 11.4821 10.8243 11.7465 10.7294L10.7327 7.90587C10.8524 7.86287 10.9808 7.8444 11.1097 7.85262L10.9189 10.8465ZM11.7358 10.7331C12.0073 10.638 12.2531 10.4871 12.4592 10.2932L10.4033 8.10836C10.4985 8.0188 10.6138 7.94749 10.7433 7.90208L11.7358 10.7331ZM12.4592 10.2932C12.6652 10.0993 12.8272 9.86672 12.9379 9.61161L10.1861 8.41685C10.2353 8.3034 10.3083 8.19778 10.4033 8.10836L12.4592 10.2932ZM11.562 10.5142H11.5645V7.51423H11.562V10.5142Z" fill="#868686" mask="url(#path-3-outside-1_344_30567)"/>
<path d="M12.0001 12.4534C12.6 12.4534 13.0863 11.9724 13.0863 11.379C13.0863 10.7857 12.6 10.3047 12.0001 10.3047C11.4003 10.3047 10.914 10.7857 10.914 11.379C10.914 11.9724 11.4003 12.4534 12.0001 12.4534Z" stroke="#868686" stroke-width="1.5" stroke-linecap="round" stroke-linejoin="bevel"/>
</g>
<defs>
<clipPath id="clip0_344_30567">
<rect width="16" height="16" fill="white"/>
</clipPath>
</defs>
</svg>
